<svg id="Layer_1" data-name="Layer 1" xmlns="http://www.w3.org/2000/svg" viewBox="0 0 460 580"><defs><style>.cls-1{fill:#2a8164;}</style></defs><path class="cls-1" d="M370.4,170.63,270.34,225.56V110.77a129.91,129.91,0,0,0-119.82,79.68V80.37h-80v320h80V290.85a129.9,129.9,0,0,0,119.82,79.68V254.44L370.4,309.38Z"/><polygon class="cls-1" points="75.36 433.23 70.69 433.23 70.69 460.37 75.6 460.37 75.36 433.23"/><path class="cls-1" d="M93.13,448.15v12.22h4.79v-13a9,9,0,0,0-.85-4.15,6.11,6.11,0,0,0-2.44-2.61,7.27,7.27,0,0,0-3.68-.9,6.86,6.86,0,0,0-3.82,1,5.82,5.82,0,0,0-2.25,2.72h-.23V440H80.06v20.35h4.8V448.44a5.22,5.22,0,0,1,.55-2.5,3.74,3.74,0,0,1,1.52-1.58,4.42,4.42,0,0,1,2.23-.55A3.73,3.73,0,0,1,92.07,445,4.57,4.57,0,0,1,93.13,448.15Z"/><path class="cls-1" d="M113.73,460a7.22,7.22,0,0,0,3.06-2.29,5.46,5.46,0,0,0,1.12-3.39,4.68,4.68,0,0,0-1.42-3.53,8.89,8.89,0,0,0-4.3-2l-3.47-.74a5.45,5.45,0,0,1-2.22-.91,1.77,1.77,0,0,1-.66-1.45,1.91,1.91,0,0,1,1-1.68,4.59,4.59,0,0,1,2.51-.65,4.46,4.46,0,0,1,1.89.36,3.24,3.24,0,0,1,1.22.94,3.42,3.42,0,0,1,.64,1.24l4.38-.47a6.41,6.41,0,0,0-2.55-4.12,9.3,9.3,0,0,0-5.64-1.53,11.42,11.42,0,0,0-4.3.76,6.82,6.82,0,0,0-2.91,2.15,5.22,5.22,0,0,0-1,3.27,5,5,0,0,0,1.39,3.67,8.17,8.17,0,0,0,4.33,2.06l3.47.73a4.88,4.88,0,0,1,2.08.88,1.83,1.83,0,0,1,.67,1.44,2.07,2.07,0,0,1-1,1.74,4.83,4.83,0,0,1-2.75.7,4.67,4.67,0,0,1-2.69-.7,3.28,3.28,0,0,1-1.35-2.08l-4.68.45a6.26,6.26,0,0,0,2.71,4.38,10.48,10.48,0,0,0,6,1.57A11.74,11.74,0,0,0,113.73,460Z"/><path class="cls-1" d="M123.58,459.74a6.84,6.84,0,0,0,3.53.9,6.68,6.68,0,0,0,3.87-1.09,6.22,6.22,0,0,0,2.26-2.8h.21v3.62h4.65V440h-4.8v11.79a4.79,4.79,0,0,1-.64,2.58,4.17,4.17,0,0,1-1.64,1.54,4.31,4.31,0,0,1-2.05.52,3.6,3.6,0,0,1-2.78-1.14,4.33,4.33,0,0,1-1.06-3.08V440h-4.8v13a9.22,9.22,0,0,0,.86,4.15A6.18,6.18,0,0,0,123.58,459.74Z"/><path class="cls-1" d="M147.23,448.4a4.44,4.44,0,0,1,.59-2.29,4.32,4.32,0,0,1,1.64-1.56,4.92,4.92,0,0,1,2.35-.56,9.37,9.37,0,0,1,1.27.09,5.49,5.49,0,0,1,1,.19v-4.41a5.38,5.38,0,0,0-.83-.1c-.33,0-.63,0-.89,0a5.25,5.25,0,0,0-3.11,1,5.1,5.1,0,0,0-1.92,2.72h-.21V440h-4.65v20.35h4.8Z"/><path class="cls-1" d="M163.86,460.34a6,6,0,0,0,2-1.18,5.83,5.83,0,0,0,1.22-1.59h.16v2.8h4.61V446.75a7,7,0,0,0-.73-3.38,5.82,5.82,0,0,0-1.94-2.14,8.24,8.24,0,0,0-2.67-1.13,12.69,12.69,0,0,0-2.93-.35,11.46,11.46,0,0,0-3.89.63,7.7,7.7,0,0,0-3,1.88,7.12,7.12,0,0,0-1.75,3.11l4.48.64a3.76,3.76,0,0,1,1.38-1.82,4.59,4.59,0,0,1,2.79-.77,3.68,3.68,0,0,1,2.56.82,3,3,0,0,1,.89,2.32v.08a1.13,1.13,0,0,1-.51,1,4.36,4.36,0,0,1-1.63.47c-.74.1-1.71.22-2.9.34a21.74,21.74,0,0,0-2.87.51,9.05,9.05,0,0,0-2.48,1,4.92,4.92,0,0,0-1.74,1.8,5.78,5.78,0,0,0-.64,2.85,6,6,0,0,0,.9,3.37,5.65,5.65,0,0,0,2.44,2.06,8.45,8.45,0,0,0,3.48.69A8,8,0,0,0,163.86,460.34Zm-5-5.76a2.29,2.29,0,0,1,.49-1.52,3.24,3.24,0,0,1,1.34-.92,8.42,8.42,0,0,1,1.92-.48l1.13-.15,1.31-.22q.66-.12,1.2-.27a2.36,2.36,0,0,0,.76-.35v2.4a3.91,3.91,0,0,1-.58,2.08,4.15,4.15,0,0,1-1.63,1.53,5.23,5.23,0,0,1-2.51.58,4.18,4.18,0,0,1-2.46-.68A2.27,2.27,0,0,1,158.9,454.58Z"/><path class="cls-1" d="M180.67,448.44a5.22,5.22,0,0,1,.55-2.5,3.8,3.8,0,0,1,1.52-1.58,4.45,4.45,0,0,1,2.24-.55,3.72,3.72,0,0,1,2.9,1.15,4.52,4.52,0,0,1,1.06,3.19v12.22h4.8v-13a9.09,9.09,0,0,0-.86-4.15,6.11,6.11,0,0,0-2.44-2.61,7.23,7.23,0,0,0-3.67-.9,6.89,6.89,0,0,0-3.83,1,5.74,5.74,0,0,0-2.24,2.72h-.24V440h-4.59v20.35h4.8Z"/><path class="cls-1" d="M200.9,459.43a10.93,10.93,0,0,0,9.68.4,7.37,7.37,0,0,0,3-2.59,8,8,0,0,0,1.27-3.83h-4.58a4.35,4.35,0,0,1-.79,1.87,3.63,3.63,0,0,1-1.41,1.17,4.62,4.62,0,0,1-4.5-.39,5.21,5.21,0,0,1-1.72-2.29,9.61,9.61,0,0,1-.61-3.58,9.08,9.08,0,0,1,.62-3.52,5.08,5.08,0,0,1,1.73-2.26,4.31,4.31,0,0,1,2.58-.79,3.88,3.88,0,0,1,2.78,1,4.5,4.5,0,0,1,1.32,2.46h4.58a7.45,7.45,0,0,0-4.35-6.41,10.07,10.07,0,0,0-4.39-.91,9.82,9.82,0,0,0-5.17,1.33,9,9,0,0,0-3.37,3.71,13.27,13.27,0,0,0,0,10.94A8.89,8.89,0,0,0,200.9,459.43Z"/><path class="cls-1" d="M235.08,454.91l-4.48-.5a3.64,3.64,0,0,1-.94,1.44,4,4,0,0,1-1.47.88,5.68,5.68,0,0,1-1.89.3,5.31,5.31,0,0,1-2.73-.67,4.53,4.53,0,0,1-1.82-1.93,6.45,6.45,0,0,1-.64-2.92h14.17V450a13,13,0,0,0-.74-4.61,8.68,8.68,0,0,0-2-3.2,8.31,8.31,0,0,0-3-1.87,10.52,10.52,0,0,0-3.56-.6,9.55,9.55,0,0,0-5.08,1.33,9.08,9.08,0,0,0-3.36,3.71,13.37,13.37,0,0,0,0,11.07,8.49,8.49,0,0,0,3.41,3.63,10.43,10.43,0,0,0,5.28,1.28,11.47,11.47,0,0,0,4.21-.72,8,8,0,0,0,3-2A7,7,0,0,0,235.08,454.91ZM223.46,444.2a5,5,0,0,1,5-.09,4.37,4.37,0,0,1,1.63,1.7,5.32,5.32,0,0,1,.59,2.46h-9.56a5.45,5.45,0,0,1,.61-2.22A5,5,0,0,1,223.46,444.2Z"/><path class="cls-1" d="M253.48,438.38a7,7,0,0,1,3.92-1.11,8,8,0,0,1,2.33.34,6.05,6.05,0,0,1,1.92,1,5.78,5.78,0,0,1,1.42,1.61,6.23,6.23,0,0,1,.78,2.17h5a11.22,11.22,0,0,0-1.29-4,10.26,10.26,0,0,0-2.51-3,10.8,10.8,0,0,0-3.48-1.86,13.27,13.27,0,0,0-4.21-.64,12.22,12.22,0,0,0-6.36,1.66,11.66,11.66,0,0,0-4.44,4.77,18.14,18.14,0,0,0,0,15,11.54,11.54,0,0,0,4.42,4.79,12.39,12.39,0,0,0,6.39,1.65,12.83,12.83,0,0,0,4.41-.72,10.75,10.75,0,0,0,5.88-5,10.94,10.94,0,0,0,1.2-3.63l-5,0a6.08,6.08,0,0,1-.81,2.12,5.69,5.69,0,0,1-1.45,1.56,6,6,0,0,1-1.92,1,7.66,7.66,0,0,1-2.28.33,7.16,7.16,0,0,1-3.91-1.08,7.26,7.26,0,0,1-2.67-3.21,14.43,14.43,0,0,1,0-10.43A7.37,7.37,0,0,1,253.48,438.38Z"/><path class="cls-1" d="M285.45,441.06a10.86,10.86,0,0,0-10.34,0,8.9,8.9,0,0,0-3.39,3.69,13.3,13.3,0,0,0,0,11,8.91,8.91,0,0,0,3.39,3.67,10.86,10.86,0,0,0,10.34,0,9,9,0,0,0,3.38-3.67,13.3,13.3,0,0,0,0-11A8.94,8.94,0,0,0,285.45,441.06Zm-.82,12.57A5.44,5.44,0,0,1,283,456a4.12,4.12,0,0,1-2.71.9,4.19,4.19,0,0,1-2.75-.9,5.46,5.46,0,0,1-1.63-2.4,10.23,10.23,0,0,1-.53-3.37,10.35,10.35,0,0,1,.53-3.39,5.44,5.44,0,0,1,1.63-2.41,4.15,4.15,0,0,1,2.75-.91,4.07,4.07,0,0,1,2.71.91,5.42,5.42,0,0,1,1.62,2.41,10.09,10.09,0,0,1,.54,3.39A10,10,0,0,1,284.63,453.63Z"/><path class="cls-1" d="M305.58,451.81a4.79,4.79,0,0,1-.64,2.58,4.17,4.17,0,0,1-1.64,1.54,4.31,4.31,0,0,1-2.05.52,3.6,3.6,0,0,1-2.78-1.14,4.33,4.33,0,0,1-1.06-3.08V440h-4.8v13a9.22,9.22,0,0,0,.86,4.15,6.12,6.12,0,0,0,2.39,2.61,6.84,6.84,0,0,0,3.53.9,6.68,6.68,0,0,0,3.87-1.09,6.22,6.22,0,0,0,2.26-2.8h.21v3.62h4.65V440h-4.8Z"/><path class="cls-1" d="M329.41,440.65a7.3,7.3,0,0,0-3.68-.9,6.86,6.86,0,0,0-3.82,1,5.82,5.82,0,0,0-2.25,2.72h-.24V440h-4.58v20.35h4.79V448.44a5.34,5.34,0,0,1,.55-2.5,3.82,3.82,0,0,1,1.53-1.58,4.42,4.42,0,0,1,2.23-.55,3.73,3.73,0,0,1,2.91,1.15,4.56,4.56,0,0,1,1,3.19v12.22h4.8v-13a9.09,9.09,0,0,0-.85-4.15A6.17,6.17,0,0,0,329.41,440.65Z"/><path class="cls-1" d="M342.54,444.41a4.31,4.31,0,0,1,2.58-.79,3.86,3.86,0,0,1,2.78,1,4.5,4.5,0,0,1,1.32,2.46h4.58a7.4,7.4,0,0,0-4.35-6.41,10.07,10.07,0,0,0-4.39-.91,9.76,9.76,0,0,0-5.16,1.33,9,9,0,0,0-3.38,3.71,13.27,13.27,0,0,0,0,10.94,8.91,8.91,0,0,0,3.36,3.7,10.93,10.93,0,0,0,9.68.4,7.4,7.4,0,0,0,3-2.59,7.86,7.86,0,0,0,1.27-3.83h-4.58a4.46,4.46,0,0,1-.78,1.87,3.7,3.7,0,0,1-1.41,1.17,4.64,4.64,0,0,1-4.51-.39,5.21,5.21,0,0,1-1.72-2.29,9.61,9.61,0,0,1-.61-3.58,9.08,9.08,0,0,1,.62-3.52A5.08,5.08,0,0,1,342.54,444.41Z"/><path class="cls-1" d="M358.88,431.92a2.8,2.8,0,0,0-2,.76,2.47,2.47,0,0,0-.82,1.85,2.41,2.41,0,0,0,.82,1.84,2.81,2.81,0,0,0,2,.76,2.78,2.78,0,0,0,1.95-.76,2.49,2.49,0,0,0,0-3.69A2.73,2.73,0,0,0,358.88,431.92Z"/><polygon class="cls-1" points="356.46 460.37 361.26 460.37 361.01 440.02 356.46 440.02 356.46 460.37"/><polygon class="cls-1" points="365.72 433.23 365.72 460.37 370.51 460.37 370.27 433.23 365.72 433.23"/><path class="cls-1" d="M84.52,481.17a10.86,10.86,0,0,0-10.34,0,8.94,8.94,0,0,0-3.38,3.69,13.3,13.3,0,0,0,0,11,9,9,0,0,0,3.38,3.67,10.86,10.86,0,0,0,10.34,0,8.91,8.91,0,0,0,3.39-3.67,13.3,13.3,0,0,0,0-11A8.9,8.9,0,0,0,84.52,481.17Zm-.81,12.57a5.38,5.38,0,0,1-1.63,2.4,4.07,4.07,0,0,1-2.7.9,4.19,4.19,0,0,1-2.75-.9,5.38,5.38,0,0,1-1.63-2.4,10,10,0,0,1-.54-3.37A10.09,10.09,0,0,1,75,487a5.36,5.36,0,0,1,1.63-2.41,4.2,4.2,0,0,1,2.75-.91,4.08,4.08,0,0,1,2.7.91A5.36,5.36,0,0,1,83.71,487a10.35,10.35,0,0,1,.53,3.39A10.23,10.23,0,0,1,83.71,493.74Z"/><path class="cls-1" d="M98.73,472.07a7.54,7.54,0,0,0-3.21.68,5.4,5.4,0,0,0-2.3,2,6.42,6.42,0,0,0-.85,3.42v1.92h-3v3.71h3v16.64h4.81V483.84h4.22v-3.71H97.18v-1.61a2.72,2.72,0,0,1,.55-1.83,2.38,2.38,0,0,1,1.89-.64,5.41,5.41,0,0,1,1,.09c.31.07.57.14.77.2l1-3.71a11.33,11.33,0,0,0-1.44-.36A11.18,11.18,0,0,0,98.73,472.07Z"/><path class="cls-1" d="M119,473.34l-9.56,27.14h5.25l2.25-6.69h10.2l2.25,6.69h5.25L125,473.34Zm-.74,16.5,3.67-10.93h.21l3.67,10.93Z"/><path class="cls-1" d="M148.88,491.92a4.79,4.79,0,0,1-.64,2.58A4.24,4.24,0,0,1,146.6,496a4.34,4.34,0,0,1-2,.52,3.64,3.64,0,0,1-2.79-1.14,4.37,4.37,0,0,1-1.06-3.07V480.13h-4.79v13a9.09,9.09,0,0,0,.86,4.15,6,6,0,0,0,2.39,2.61,6.84,6.84,0,0,0,3.53.9,6.63,6.63,0,0,0,3.86-1.09,6,6,0,0,0,2.26-2.8H149v3.62h4.65V480.13h-4.8Z"/><path class="cls-1" d="M168.06,488.87l-3.47-.74a5.45,5.45,0,0,1-2.22-.91,1.76,1.76,0,0,1-.66-1.45,1.91,1.91,0,0,1,1-1.68,4.59,4.59,0,0,1,2.51-.65,4.41,4.41,0,0,1,1.88.36,3.2,3.2,0,0,1,1.23.94A3.42,3.42,0,0,1,169,486l4.38-.47a6.43,6.43,0,0,0-2.55-4.12,9.3,9.3,0,0,0-5.64-1.53,11.42,11.42,0,0,0-4.3.76,6.76,6.76,0,0,0-2.91,2.15,5.22,5.22,0,0,0-1,3.27,5,5,0,0,0,1.39,3.67,8.21,8.21,0,0,0,4.33,2.07l3.47.72a4.88,4.88,0,0,1,2.08.88,1.83,1.83,0,0,1,.67,1.44,2.07,2.07,0,0,1-1,1.74,4.83,4.83,0,0,1-2.75.7,4.67,4.67,0,0,1-2.69-.7,3.28,3.28,0,0,1-1.35-2.08l-4.68.45a6.26,6.26,0,0,0,2.71,4.38,10.4,10.4,0,0,0,6,1.57,11.74,11.74,0,0,0,4.51-.82,7.22,7.22,0,0,0,3.06-2.29,5.49,5.49,0,0,0,1.12-3.38,4.72,4.72,0,0,0-1.42-3.54A8.89,8.89,0,0,0,168.06,488.87Z"/><path class="cls-1" d="M185.85,496.65a4.28,4.28,0,0,1-.83.07,2.85,2.85,0,0,1-1.08-.19,1.51,1.51,0,0,1-.79-.69,3,3,0,0,1-.3-1.48V483.84h4v-3.71h-4v-4.88h-4.8v4.88h-2.89v3.71h2.89v11.31a5.54,5.54,0,0,0,.83,3.18,4.93,4.93,0,0,0,2.29,1.88,7.83,7.83,0,0,0,3.24.55,8.94,8.94,0,0,0,1.73-.19,9.12,9.12,0,0,0,1.1-.29l-.81-3.75A4.71,4.71,0,0,1,185.85,496.65Z"/><path class="cls-1" d="M199.56,479.84a5.26,5.26,0,0,0-3.11,1,5,5,0,0,0-1.91,2.72h-.22v-3.39h-4.65v20.35h4.8v-12a4.38,4.38,0,0,1,.6-2.3,4.12,4.12,0,0,1,1.63-1.55,4.84,4.84,0,0,1,2.35-.57,9.37,9.37,0,0,1,1.27.09,5.49,5.49,0,0,1,1,.19V480a5.38,5.38,0,0,0-.83-.1Z"/><path class="cls-1" d="M216.35,481.34a8.19,8.19,0,0,0-2.66-1.13,12.69,12.69,0,0,0-2.93-.35,11.56,11.56,0,0,0-3.9.63,7.78,7.78,0,0,0-3,1.88,7.32,7.32,0,0,0-1.75,3.11l4.48.64A3.78,3.78,0,0,1,208,484.3a4.55,4.55,0,0,1,2.79-.77,3.65,3.65,0,0,1,2.55.82,3,3,0,0,1,.89,2.32v.08a1.13,1.13,0,0,1-.51,1,4.3,4.3,0,0,1-1.62.47c-.74.1-1.71.22-2.9.34a21.74,21.74,0,0,0-2.87.51,9.12,9.12,0,0,0-2.49,1,4.9,4.9,0,0,0-1.73,1.8,5.67,5.67,0,0,0-.64,2.85,6,6,0,0,0,.9,3.37,5.57,5.57,0,0,0,2.43,2.06,8.45,8.45,0,0,0,3.48.69,8.07,8.07,0,0,0,2.78-.44,5.87,5.87,0,0,0,2-1.18,5.79,5.79,0,0,0,1.23-1.58h.16v2.79H219V486.86a7,7,0,0,0-.74-3.38A5.82,5.82,0,0,0,216.35,481.34Zm-2.11,11.84a4,4,0,0,1-.57,2.08,4.18,4.18,0,0,1-1.64,1.53,5.08,5.08,0,0,1-2.5.58,4.24,4.24,0,0,1-2.47-.68,2.55,2.55,0,0,1-.47-3.52,3.2,3.2,0,0,1,1.33-.92,8.14,8.14,0,0,1,1.93-.47l1.12-.16,1.31-.22c.45-.08.84-.17,1.2-.27a2.16,2.16,0,0,0,.76-.35Z"/><polygon class="cls-1" points="223.05 500.48 227.84 500.48 227.6 473.34 223.05 473.34 223.05 500.48"/><polygon class="cls-1" points="232.18 500.48 236.98 500.48 236.74 480.13 232.18 480.13 232.18 500.48"/><path class="cls-1" d="M234.6,472a2.8,2.8,0,0,0-2,.76,2.47,2.47,0,0,0-.82,1.85,2.41,2.41,0,0,0,.82,1.84,2.81,2.81,0,0,0,2,.76,2.78,2.78,0,0,0,2-.76,2.49,2.49,0,0,0,0-3.69A2.73,2.73,0,0,0,234.6,472Z"/><path class="cls-1" d="M254.58,481.34a8.19,8.19,0,0,0-2.66-1.13,12.69,12.69,0,0,0-2.93-.35,11.46,11.46,0,0,0-3.89.63,7.82,7.82,0,0,0-3,1.88,7.32,7.32,0,0,0-1.75,3.11l4.48.64a3.78,3.78,0,0,1,1.39-1.82,4.55,4.55,0,0,1,2.79-.77,3.69,3.69,0,0,1,2.56.82,3,3,0,0,1,.88,2.32v.08a1.13,1.13,0,0,1-.51,1,4.3,4.3,0,0,1-1.62.47c-.74.1-1.71.22-2.9.34a21.74,21.74,0,0,0-2.87.51,9.25,9.25,0,0,0-2.49,1,4.9,4.9,0,0,0-1.73,1.8,5.67,5.67,0,0,0-.64,2.85,6,6,0,0,0,.9,3.37A5.6,5.6,0,0,0,243,500.2a8.36,8.36,0,0,0,3.47.69,8.07,8.07,0,0,0,2.78-.44,5.87,5.87,0,0,0,2-1.18,5.79,5.79,0,0,0,1.23-1.58h.16v2.79h4.61V486.86a7,7,0,0,0-.73-3.38A5.93,5.93,0,0,0,254.58,481.34Zm-2.1,11.84a4,4,0,0,1-.58,2.08,4.11,4.11,0,0,1-1.64,1.53,5.08,5.08,0,0,1-2.5.58,4.24,4.24,0,0,1-2.47-.68,2.58,2.58,0,0,1-.47-3.52,3.17,3.17,0,0,1,1.34-.92,7.94,7.94,0,0,1,1.92-.47l1.12-.16,1.32-.22q.66-.12,1.2-.27a2.26,2.26,0,0,0,.76-.35Z"/></svg>