<?xml version="1.0" encoding="UTF-8"?>
<svg width="20px" height="20px" viewBox="0 0 20 20" version="1.1" xmlns="http://www.w3.org/2000/svg" xmlns:xlink="http://www.w3.org/1999/xlink">
    <title>Search Icon</title>
    <g id="Page-1" stroke="none" stroke-width="1" fill="none" fill-rule="evenodd">
        <g id="2.0-Consumers-(landing-example)" transform="translate(-1170.000000, -81.000000)" fill="#0A334D">
            <g id="Search-Icon" transform="translate(60.000000, -180.000000)">
                <path d="M1118,261 C1122.41828,261 1126,264.581722 1126,269 C1126,270.848202 1125.37326,272.550021 1124.32073,273.904523 L1129.70711,279.292893 C1130.09763,279.683418 1130.09763,280.316582 1129.70711,280.707107 C1129.31658,281.097631 1128.68342,281.097631 1128.29289,280.707107 L1122.90452,275.320729 C1121.55002,276.373264 1119.8482,277 1118,277 C1113.58172,277 1110,273.418278 1110,269 C1110,264.581722 1113.58172,261 1118,261 Z M1118,263 C1114.68629,263 1112,265.686292 1112,269 C1112,272.313708 1114.68629,275 1118,275 C1121.31371,275 1124,272.313708 1124,269 C1124,265.686292 1121.31371,263 1118,263 Z"></path>
            </g>
        </g>
    </g>
</svg>
